<svg id="Capa_1" data-name="Capa 1" xmlns="http://www.w3.org/2000/svg" viewBox="0 0 232.79 232.41"><defs><style>.cls-1{fill:#fff;}.cls-1,.cls-2{fill-rule:evenodd;}.cls-2,.cls-3{fill:#43271c;}</style></defs><title>tejeda</title><path class="cls-1" d="M119.77,3.57c4.51.1,8.09,4.81,12.57,5.34s9.91-3.14,14.32-2.2c4.36,1.14,6.76,6.55,11,8.09S168,14,172.1,16c4,2.11,5.07,7.93,8.83,10.41S191.2,28,194.71,30.84c3.39,3,3.11,8.89,6.2,12.17s9.61,4,12.38,7.52c2.61,3.68,1,9.37,3.22,13.27S225,69.88,226.83,74c1.69,4.17-1.22,9.33.07,13.65s6.81,7.86,7.69,12.28c.68,4.45-3.34,8.8-3.08,13.3s4.82,9.22,4.65,13.72c-.36,4.49-5.27,7.8-6.06,12.24s2.56,10.08,1.36,14.42c-1.39,4.29-6.93,6.37-8.72,10.51s.17,10.39-2,14.35c-2.34,3.85-8.21,4.59-10.91,8.21s-2.23,10.15-5.25,13.5c-3.17,3.21-9.06,2.58-12.51,5.48s-4.52,9.36-8.23,11.92C180,220,174.44,218,170.4,220s-6.55,8.06-10.75,9.7c-4.27,1.45-9.25-1.76-13.64-.72s-8.24,6.34-12.7,7c-4.49.43-8.59-3.84-13.1-3.84s-9.48,4.27-14,3.84c-4.46-.62-7.47-5.72-11.86-6.76s-10.21,2-14.48.52c-4.2-1.64-6-7.29-10-9.32s-10.38-.44-14.2-2.83C52,215,51.6,209.09,48.14,206.19s-10-2.82-13.17-6c-3-3.35-2-9.19-4.74-12.81s-9.08-5-11.42-8.9c-2.17-4,.12-9.42-1.66-13.56s-7.68-7-9.06-11.3c-1.2-4.34,2.29-9.13,1.51-13.57s-5.85-8.6-6.21-13.09c-.17-4.5,4.33-8.35,4.6-12.86s-3.72-9.71-3-14.16c.88-4.42,6.15-7.13,7.44-11.45S11,78.15,12.72,74c1.88-4.1,7.63-5.52,9.88-9.43s1-10.34,3.66-14C29,47,35,46.92,38.05,43.64s3.4-9.82,6.78-12.8c3.52-2.82,9.3-1.51,13.07-4S63.47,18.08,67.45,16c4.07-1.94,9.39.67,13.63-.87s7.45-7.25,11.81-8.39c4.41-.94,9,2.82,13.46,2.3S115.27,3.67,119.77,3.57Z" transform="translate(-3.38 -3.57)"/><path class="cls-2" d="M204.45,151.87c-5.32-.7-16.3.35-28.64,3.69-5.59,1.81-20.91,7.05-24.06,10.61C175.81,155.56,201.14,151.15,204.45,151.87Z" transform="translate(-3.38 -3.57)"/><path class="cls-2" d="M44.63,161.05c4.7,3.89,12.59,7.53,18.78,7.89,6.9.8,19.9,3,25,3.07C71.82,175.17,46.76,169.08,44.63,161.05Z" transform="translate(-3.38 -3.57)"/><path class="cls-2" d="M163.45,98.17,158.6,97c.06-2.14-.75-3.45-3-3.21-.42,0-1.17.26-1.18.43-.23,3.12-2.95,2-5.14,3.23,1.16-4.15,2.17-7.71,3.17-11.28,1.49-5.34,1.49-5.34,7.05-4.35C160.77,87.19,162.09,92.61,163.45,98.17Zm-7.07-12.45h-.45c-.52,1.57-1.05,3.13-1.62,4.84h3Z" transform="translate(-3.38 -3.57)"/><path class="cls-2" d="M138.86,84.07V97.85l7.07-4.35c.71,4,.5,4.13-3.21,5.53-2.48.93-4.79,2.28-7.37,3.54-.45-4.94-1.18-9.81-1.12-14.67C134.25,86.73,136.92,85.6,138.86,84.07Z" transform="translate(-3.38 -3.57)"/><path class="cls-2" d="M169.73,90.8l4.2-2a6.09,6.09,0,0,0,.36,2.5c.45.78,1.52,1.2,2.1,1.61l-2.23,3.8c-1.07-2.11-2.95-1.27-4.43-.34Z" transform="translate(-3.38 -3.57)"/><path class="cls-2" d="M129,97.4v5.32l-2.93-1-1.54,1.65-1.92-3.63,2.63-4.33Z" transform="translate(-3.38 -3.57)"/><path class="cls-2" d="M148.46,98.33l3.85-.52c0,.2.09.39.13.58l-5.61,1.51,1.95-5.37.27,0C148.86,95.75,148.68,96.92,148.46,98.33Z" transform="translate(-3.38 -3.57)"/><path class="cls-2" d="M154.82,94.32c1.18.33,2.37.5,2.38.69.09,3.57,3.3,3.06,5.44,4.09C160,99.44,160,99.44,154.82,94.32Z" transform="translate(-3.38 -3.57)"/><path class="cls-2" d="M96.53,146.86q-2.44-6.41-4.91-12.82l-.5.1v27.61l-7.28-.89c1.6-7.32,1.31-43.09-.46-47.36,2.89.4,5.62.7,8.28,1.25.52.1,1,1.13,1.23,1.81,1.35,4.14,2.62,8.3,3.93,12.46h1c1.36-5,2.71-9.92,4.14-15.17h8.92V160.9l-9.52,1.22c2.94-9.23.68-18.21,1.49-27.05l-.65-.18q-2.35,6-4.7,11.92ZM88,119.8H86.66v39.32c.47-.26,1.13-.46,1.14-.67C88.19,145.57,88.8,132.68,88,119.8Zm18.17,8.1-.94,0v31.33c1.79-1,1.45-3.12,1.46-4.86.07-8.37,0-16.74-.11-25.1A5.33,5.33,0,0,0,106.14,127.9Zm-9.43,14.49c1-2.25-3.12-12.94-5.88-15C92.74,132.29,94.65,137.16,96.71,142.39Zm11.41-26.64c-1.4.1-3.34-.33-4.1.43s-.76,2.79-1,4Z" transform="translate(-3.38 -3.57)"/><path class="cls-2" d="M151.17,153.33l-5.61-24.78-.34.08c0,7.58-.13,15.16.06,22.73.09,3.95,0,4.31-4.56,4.17a83.15,83.15,0,0,1-1.07-8.83c-.2-10.2-.16-20.41-.3-30.61,0-2.16-.44-4.3-.69-6.66l8.08-2.28q2.65,9.57,5.29,19.14l.27-.09V105.61l6.58-2c0,1.8,0,3.41,0,5,.17,13.42.32,26.84.56,40.26,0,1.58-.38,2.31-2,2.63C155.38,152,153.38,152.68,151.17,153.33Zm-9.55-39.68v40C143.46,151.89,142.79,116.11,141.62,113.65Zm11.16,36.65L154,150l-7.83-31.6-1,.27Q148.94,134.49,152.78,150.3Zm2.62-42.87h-.5v29.32l.5,0Z" transform="translate(-3.38 -3.57)"/><path class="cls-2" d="M61,132.92c0-5.52,0-11,0-16.56,0-4.22,2.15-6,6.38-5.35,10.71,1.61,12,3,12.16,13.8.11,8.64.07,17.29.09,25.94a22.88,22.88,0,0,1-.18,3.31c-.61,4.36-2.32,5.93-6.66,5.37-11-1.4-11.56-2.9-11.64-12.16,0-4.78,0-9.57,0-14.35Zm10.53,17a2.42,2.42,0,0,0,.27-.75c0-9.19.06-18.38-.07-27.56,0-2.46-1.83-2.84-3.91-2.36a3.2,3.2,0,0,0-.28.87c.1,9.1.19,18.19.37,27.28C68,149.66,69.38,150.35,71.53,149.89Zm-6.88-36.64-.38-.3a6.85,6.85,0,0,0-.86,2.23c0,12.4.1,24.79.32,37.18a3.94,3.94,0,0,0,1.89,2.91,31.38,31.38,0,0,0,6.83,2.08c1,.2,2.08-.32,3.13-.51,0-.26,0-.52-.08-.79-2.15-.37-4.31-.71-6.45-1.13-2.7-.53-4.35-2.22-4.36-4.94C64.61,137.74,64.65,125.5,64.65,113.25Zm8.65,39.27c.56-1.2,1.3-2.06,1.31-2.93q.14-13.77,0-27.53a8,8,0,0,0-.82-2.36l-.52.22Z" transform="translate(-3.38 -3.57)"/><path class="cls-2" d="M187,95.65h8.75q4.37,23.57,8.69,47h-8.84v-8.52c-2.51.45-4.6.72-6.62,1.26a2.29,2.29,0,0,0-1.32,1.66c-.16,2.18-.06,4.38-.06,6.89l-6.8,1.61C182.86,129,184.9,112.61,187,95.65Zm11.81,44.72c1.76-2.65-4.39-35.66-7.11-38.92C194.1,114.51,196.43,127.29,198.82,140.37Zm-4.75-14.3c-.92-5.41-1.82-10.63-2.71-15.85h-.7c-.74,5.62-1.48,11.25-2.26,17.24Z" transform="translate(-3.38 -3.57)"/><path class="cls-2" d="M139.07,156.24l-9.38,1.13c-.24-2.68-.56-5.12-.63-7.57-.05-1.89-.85-2.28-2.6-2.11-4.49.44-5.36,1.17-5.74,5.66-.15,1.83,0,3.67,0,5.71-1.3.2-2.45.38-3.6.58s-2.15.42-3.44.67c1.12-6.12,2.28-12,3.24-17.93,1.26-7.8,2.44-15.62,3.49-23.45.25-1.9-.2-3.89-.32-5.91l10.76-1.49C133.54,126.26,136.27,141.05,139.07,156.24Zm-15.79-39h-.94c-1.75,13.21-4.22,26.33-5.14,39.69a3.34,3.34,0,0,0,1.28-2.11c1.77-11,3.54-22.1,5.2-33.17A18.53,18.53,0,0,0,123.28,117.24Zm4.82-.8-.95.1q2.52,19.17,5.06,38.34l1.19-.17C132.47,141.84,130.31,129.14,128.1,116.44Zm-.25,22.44c-.61-5.2-1.17-10-1.74-14.78l-.74,0c-.62,4.94-1.25,9.87-1.9,15.06Zm.31,3.34c-.15-.46-.3-.92-.44-1.37l-5,1.39c.11.36.21.72.32,1.08Z" transform="translate(-3.38 -3.57)"/><path class="cls-2" d="M162.55,102.48c1.79-.58,4.27-1.54,6.85-2.18a7.74,7.74,0,0,1,9.43,6.62,67.69,67.69,0,0,1,.56,8.79c.09,7.62.16,15.24.06,22.86-.07,5.52-1.15,6.86-6.32,8.57-3.29,1.09-6.62,2-10.58,3.22Zm6.95,39c3.5-.84,3.84-2.75,3.83-4.88q-.06-12.81-.13-25.64a3.9,3.9,0,0,0-.33-2.13,10,10,0,0,0-2.14-1.8c-.38.71-1.08,1.41-1.1,2.14-.13,4.4-.12,8.82-.13,13.23C169.49,128.65,169.5,134.88,169.5,141.51Zm.56,2.49.58.71a10.61,10.61,0,0,0,2.83-.75c2.38-1.41,3.17-3.72,3.12-6.35-.18-9.18-.36-18.36-.61-27.54a11.47,11.47,0,0,0-.78-3.75c-.91-2.28-3.07-3.2-5.55-2.17,5,.64,5.16,4.18,5.23,7.67.14,7.53.2,15.06.3,22.59C175.23,138.43,175.39,142.49,170.06,144ZM165,104.3v42.86h1.27C166.3,132.85,166.37,118.56,165,104.3Z" transform="translate(-3.38 -3.57)"/><path class="cls-2" d="M40.43,110.57c3-4.12,3.39-4.24,8.26-2.72,7.5,2.33,7.5,2.33,7.63,10,0,1.24,0,2.49,0,3.74l-.83.53a20.61,20.61,0,0,0-2.54-3c-2.46-2.08-4.66-1.36-4.7,1.74-.08,6.7.12,13.4.49,20.09.14,2.66,2,3.52,6.93,3.78V155c-7.67.45-13.55-3.63-14.29-10.93-.82-8.1-.69-16.3-.92-24.45-.08-3,0-6,0-9.07Zm3.88-.29c-2,.88-2.31,2.88-2.28,4.92.09,8,.13,16,.46,24,.12,2.91,1,5.79,1.56,8.68C43.43,135.28,42.51,122.85,44.31,110.28Zm10.26,3c.77-3.62-3.52-1.89-4.48-3.89-.36,1.2-.72,2.41-1.15,3.89Zm.11,3.16c-2.1-2-4.27-2.13-6.39-2.13-.53,0-1.07.92-1.55,1.37Z" transform="translate(-3.38 -3.57)"/><path class="cls-3" d="M95.1,167.38l7.47.27-.09,2.48L100,170l-.25,7L97.22,177l.25-7L95,169.85Z" transform="translate(-3.38 -3.57)"/><path class="cls-3" d="M104,167.64l5.9-.14,0,2.06-3.4.08,0,1.55,3-.08.05,2.1-3,.08,0,1.74,3.41-.08,0,2-5.9.14Z" transform="translate(-3.38 -3.57)"/><path class="cls-3" d="M117.66,173.19c.13,2.19-1.6,3.38-3.44,3.52a4.48,4.48,0,0,1-2.77-.77c.28-.32.84-1,1.66-2a1.28,1.28,0,0,0,1,.24,1,1,0,0,0,1-1.19l-.46-5.86,2.48-.2Z" transform="translate(-3.38 -3.57)"/><path class="cls-3" d="M118.82,166.78l5.84-.79.28,2-3.37.46.21,1.53,3-.41.28,2.08-3,.41.24,1.73,3.37-.46.27,2-5.84.79Z" transform="translate(-3.38 -3.57)"/><path class="cls-3" d="M126.17,165.77l3.45-.7a4.74,4.74,0,1,1,1.88,9.3l-3.45.69Zm3.83,6.4,1-.21a2.24,2.24,0,1,0-.89-4.4l-1,.21Z" transform="translate(-3.38 -3.57)"/><path class="cls-3" d="M137.23,173.19,139,162.86l1.08-.3,6.85,7.94-2.4.67-.89-1-3.74,1.05-.22,1.34Zm3-4.3,1.87-.52-1.49-1.75Z" transform="translate(-3.38 -3.57)"/><path class="cls-3" d="M56.29,93a3.15,3.15,0,0,0-2.08-1.29A3.19,3.19,0,0,0,53.05,98a3.14,3.14,0,0,0,2.41-.48l2,2.92a6.79,6.79,0,1,1-2.63-12.25A6.71,6.71,0,0,1,59.21,91Z" transform="translate(-3.38 -3.57)"/><path class="cls-3" d="M59.49,102.79,67.27,90l1.6.17,4.87,14.19L70.19,104l-.63-1.85L64,101.5l-1,1.68Zm6.26-4.12,2.75.3-1-3.12Z" transform="translate(-3.38 -3.57)"/><path class="cls-3" d="M84,104.74l-2-3.67-2.2-.08-.13,3.6-3.57-.13.49-13.56,5.71.2a5,5,0,0,1,3.08,8.77l2.7,5Zm-4.06-6.83,2.2.08a1.93,1.93,0,0,0,2-1.86,2,2,0,0,0-1.89-2L80.06,94Z" transform="translate(-3.38 -3.57)"/><path class="cls-3" d="M89.66,91.27l10.69-.34.11,3.54-3.6.12.33,10-3.57.11-.32-10-3.53.12Z" transform="translate(-3.38 -3.57)"/><path class="cls-3" d="M101.86,104.5l5-14.13,1.6-.16,7.69,12.89-3.54.35-1-1.69-5.53.55-.63,1.84Zm5.28-5.32,2.75-.27-1.66-2.84Z" transform="translate(-3.38 -3.57)"/></svg>